<svg width="40" height="41" viewBox="0 0 40 41" fill="none" xmlns="http://www.w3.org/2000/svg">
<path fill-rule="evenodd" clip-rule="evenodd" d="M32.4399 28.0339C34.5279 20.2079 29.5839 12.1247 21.4619 9.93924C12.2899 7.4685 -0.728085 13.8844 2.16792 22.1142C3.12792 24.836 4.97591 25.4728 8.46192 25.523L8.67992 25.527C10.5219 25.5491 11.0399 25.6696 11.1959 25.9227C11.4499 26.3406 11.4539 27.0054 11.1679 28.8354C11.0319 29.6992 10.9879 30.0005 10.9359 30.4725C10.6179 33.347 11.1019 35.5888 12.9759 37.6176C18.8319 43.9511 30.0819 36.8683 32.4399 28.0339V28.0339ZM5.93992 20.7723C4.48192 16.6344 13.8119 12.0364 20.4259 13.8161C26.4599 15.4412 30.0779 21.3569 28.5759 26.9914C26.8999 33.2747 19.0119 38.2403 15.9079 34.8817C14.9479 33.8452 14.7099 32.7364 14.9119 30.9144C14.9539 30.5247 14.9939 30.2556 15.1199 29.4561C15.5579 26.6499 15.5519 25.3683 14.6039 23.8196C13.4159 21.8771 12.0039 21.5497 8.72991 21.5075L8.51791 21.5035C6.58991 21.4774 6.13192 21.3187 5.93792 20.7723H5.93992Z" fill="white"/>
<path d="M12 20.0873C11.337 20.0873 10.7011 19.8228 10.2322 19.3519C9.76339 18.881 9.5 18.2423 9.5 17.5764C9.5 16.9105 9.76339 16.2718 10.2322 15.8009C10.7011 15.33 11.337 15.0655 12 15.0655C12.663 15.0655 13.2989 15.33 13.7678 15.8009C14.2366 16.2718 14.5 16.9105 14.5 17.5764C14.5 18.2423 14.2366 18.881 13.7678 19.3519C13.2989 19.8228 12.663 20.0873 12 20.0873V20.0873Z" fill="white"/>
<path d="M19.5 20.0873C18.837 20.0873 18.2011 19.8228 17.7322 19.3519C17.2634 18.881 17 18.2423 17 17.5764C17 16.9105 17.2634 16.2718 17.7322 15.8009C18.2011 15.33 18.837 15.0655 19.5 15.0655C20.163 15.0655 20.7989 15.33 21.2678 15.8009C21.7366 16.2718 22 16.9105 22 17.5764C22 18.2423 21.7366 18.881 21.2678 19.3519C20.7989 19.8228 20.163 20.0873 19.5 20.0873Z" fill="white"/>
<path d="M24.5 26.1135C23.837 26.1135 23.2011 25.849 22.7322 25.3781C22.2634 24.9072 22 24.2685 22 23.6026C22 22.9367 22.2634 22.298 22.7322 21.8271C23.2011 21.3562 23.837 21.0917 24.5 21.0917C25.163 21.0917 25.7989 21.3562 26.2678 21.8271C26.7366 22.298 27 22.9367 27 23.6026C27 24.2685 26.7366 24.9072 26.2678 25.3781C25.7989 25.849 25.163 26.1135 24.5 26.1135Z" fill="white"/>
<path d="M21.5 33.1441C20.837 33.1441 20.2011 32.8795 19.7322 32.4087C19.2634 31.9378 19 31.2991 19 30.6332C19 29.9672 19.2634 29.3286 19.7322 28.8577C20.2011 28.3868 20.837 28.1223 21.5 28.1223C22.163 28.1223 22.7989 28.3868 23.2678 28.8577C23.7366 29.3286 24 29.9672 24 30.6332C24 31.2991 23.7366 31.9378 23.2678 32.4087C22.7989 32.8795 22.163 33.1441 21.5 33.1441V33.1441Z" fill="white"/>
<path d="M28.74 7.24153C28.9771 7.11392 29.2375 7.03568 29.5054 7.01149C29.7734 6.98729 30.0434 7.01764 30.2994 7.10072C30.5554 7.18381 30.7921 7.31791 30.9953 7.495C31.1985 7.6721 31.364 7.88855 31.482 8.13139L39.668 25.0048C39.8047 25.3081 39.8212 25.6522 39.7143 25.9674C39.6073 26.2825 39.3849 26.5449 39.0923 26.7012C38.7996 26.8575 38.4587 26.896 38.1387 26.8088C37.8188 26.7217 37.544 26.5155 37.37 26.2321L27.954 10.0216C27.8186 9.78842 27.7316 9.53017 27.698 9.26235C27.6644 8.99454 27.6851 8.72267 27.7586 8.46306C27.8322 8.20344 27.9573 7.96143 28.1262 7.75153C28.2952 7.54162 28.5047 7.36816 28.742 7.24153H28.74Z" fill="white"/>
<path fill-rule="evenodd" clip-rule="evenodd" d="M25.0738 6.99844C26.0478 8.83643 27.6858 9.35067 29.2698 8.50499C30.8518 7.66132 31.3458 6.00813 30.3718 4.17014C29.2598 2.06499 26.8758 0.156693 25.2958 0.998353C23.7158 1.84202 23.9598 4.89329 25.0758 6.99844H25.0738ZM26.8398 6.05434C26.4857 5.34011 26.2686 4.56531 26.1998 3.77041C26.1701 3.4381 26.1822 3.10334 26.2358 2.77407L26.2718 2.79215C26.3718 2.84036 26.6818 2.98499 27.0778 3.30237C27.6818 3.78648 28.2818 4.49958 28.6058 5.11224C29.0638 5.976 28.9338 6.40988 28.3298 6.73329C27.7298 7.05469 27.2978 6.91809 26.8398 6.05634V6.05434Z" fill="white"/>
</svg>
